<mxfile modified="2022-07-22T07:43:42.421Z" host="app.diagrams.net" agent="5.0 (Macintosh; Intel Mac OS X 10_15_7) AppleWebKit/537.36 (KHTML, like Gecko) Chrome/103.0.0.0 Safari/537.36" etag="Kz9OHLjSeNTddCZyDpRI" version="20.1.4" type="github">
  <diagram id="Ht1M8jgEwFfnCIfOTk4-" name="Page-1">
    <mxGraphModel dx="1036" dy="1663" grid="1" gridSize="10" guides="1" tooltips="1" connect="1" arrows="1" fold="1" page="1" pageScale="1" pageWidth="1169" pageHeight="827" math="0" shadow="0">
      <root>
        <mxCell id="0" />
        <mxCell id="1" parent="0" />
        <mxCell id="UEzPUAAOIrF-is8g5C7q-175" value="AWS Cloud" style="points=[[0,0],[0.25,0],[0.5,0],[0.75,0],[1,0],[1,0.25],[1,0.5],[1,0.75],[1,1],[0.75,1],[0.5,1],[0.25,1],[0,1],[0,0.75],[0,0.5],[0,0.25]];outlineConnect=0;gradientColor=none;html=1;whiteSpace=wrap;fontSize=12;fontStyle=0;shape=mxgraph.aws4.group;grIcon=mxgraph.aws4.group_aws_cloud_alt;strokeColor=#232F3E;fillColor=none;verticalAlign=top;align=left;spacingLeft=30;fontColor=#232F3E;dashed=0;labelBackgroundColor=#ffffff;container=1;pointerEvents=0;collapsible=0;recursiveResize=0;" parent="1" vertex="1">
          <mxGeometry x="160" y="-770" width="730" height="410" as="geometry" />
        </mxCell>
        <mxCell id="VnYKqoV3uC1Lkvoz5hvW-4" value="" style="sketch=0;points=[[0,0,0],[0.25,0,0],[0.5,0,0],[0.75,0,0],[1,0,0],[0,1,0],[0.25,1,0],[0.5,1,0],[0.75,1,0],[1,1,0],[0,0.25,0],[0,0.5,0],[0,0.75,0],[1,0.25,0],[1,0.5,0],[1,0.75,0]];outlineConnect=0;fontColor=#232F3E;gradientColor=#F78E04;gradientDirection=north;fillColor=#D05C17;strokeColor=#ffffff;dashed=0;verticalLabelPosition=bottom;verticalAlign=top;align=center;html=1;fontSize=12;fontStyle=0;aspect=fixed;shape=mxgraph.aws4.resourceIcon;resIcon=mxgraph.aws4.containers;" vertex="1" parent="UEzPUAAOIrF-is8g5C7q-175">
          <mxGeometry x="140" y="132" width="78" height="78" as="geometry" />
        </mxCell>
        <mxCell id="VnYKqoV3uC1Lkvoz5hvW-49" value="" style="edgeStyle=orthogonalEdgeStyle;rounded=0;orthogonalLoop=1;jettySize=auto;html=1;fontSize=13;" edge="1" parent="UEzPUAAOIrF-is8g5C7q-175" source="VnYKqoV3uC1Lkvoz5hvW-7" target="VnYKqoV3uC1Lkvoz5hvW-11">
          <mxGeometry relative="1" as="geometry">
            <Array as="points">
              <mxPoint x="595" y="315" />
              <mxPoint x="595" y="210" />
            </Array>
          </mxGeometry>
        </mxCell>
        <mxCell id="VnYKqoV3uC1Lkvoz5hvW-7" value="Amazon Route 53" style="sketch=0;outlineConnect=0;fontColor=#232F3E;gradientColor=none;strokeColor=#ffffff;fillColor=#232F3E;dashed=0;verticalLabelPosition=middle;verticalAlign=bottom;align=center;html=1;whiteSpace=wrap;fontSize=10;fontStyle=1;spacing=3;shape=mxgraph.aws4.productIcon;prIcon=mxgraph.aws4.route_53;" vertex="1" parent="UEzPUAAOIrF-is8g5C7q-175">
          <mxGeometry x="490" y="260" width="80" height="110" as="geometry" />
        </mxCell>
        <mxCell id="VnYKqoV3uC1Lkvoz5hvW-8" value="AWS Fargate" style="sketch=0;outlineConnect=0;fontColor=#232F3E;gradientColor=none;strokeColor=#ffffff;fillColor=#232F3E;dashed=0;verticalLabelPosition=middle;verticalAlign=bottom;align=center;html=1;whiteSpace=wrap;fontSize=10;fontStyle=1;spacing=3;shape=mxgraph.aws4.productIcon;prIcon=mxgraph.aws4.fargate;" vertex="1" parent="UEzPUAAOIrF-is8g5C7q-175">
          <mxGeometry x="490" y="60" width="80" height="100" as="geometry" />
        </mxCell>
        <mxCell id="VnYKqoV3uC1Lkvoz5hvW-10" value="Amazon ECR" style="sketch=0;outlineConnect=0;fontColor=#232F3E;gradientColor=none;strokeColor=#ffffff;fillColor=#232F3E;dashed=0;verticalLabelPosition=middle;verticalAlign=bottom;align=center;html=1;whiteSpace=wrap;fontSize=10;fontStyle=1;spacing=3;shape=mxgraph.aws4.productIcon;prIcon=mxgraph.aws4.ecr;" vertex="1" parent="UEzPUAAOIrF-is8g5C7q-175">
          <mxGeometry x="81" y="269.5" width="80" height="100" as="geometry" />
        </mxCell>
        <mxCell id="VnYKqoV3uC1Lkvoz5hvW-11" value="Application Load Balancer" style="sketch=0;outlineConnect=0;fontColor=#232F3E;gradientColor=none;strokeColor=#ffffff;fillColor=#232F3E;dashed=0;verticalLabelPosition=middle;verticalAlign=bottom;align=center;html=1;whiteSpace=wrap;fontSize=10;fontStyle=1;spacing=3;shape=mxgraph.aws4.productIcon;prIcon=mxgraph.aws4.application_load_balancer;" vertex="1" parent="UEzPUAAOIrF-is8g5C7q-175">
          <mxGeometry x="620" y="150" width="80" height="110" as="geometry" />
        </mxCell>
        <mxCell id="VnYKqoV3uC1Lkvoz5hvW-28" value="&lt;b&gt;zuck-app-repo&lt;/b&gt;" style="text;html=1;align=center;verticalAlign=middle;resizable=0;points=[];autosize=1;strokeColor=none;fillColor=none;" vertex="1" parent="UEzPUAAOIrF-is8g5C7q-175">
          <mxGeometry x="166" y="269.5" width="110" height="30" as="geometry" />
        </mxCell>
        <mxCell id="VnYKqoV3uC1Lkvoz5hvW-30" value="" style="swimlane;startSize=0;" vertex="1" parent="UEzPUAAOIrF-is8g5C7q-175">
          <mxGeometry x="60" y="260" width="380" height="129.5" as="geometry" />
        </mxCell>
        <mxCell id="VnYKqoV3uC1Lkvoz5hvW-31" value="&lt;ul&gt;&lt;li&gt;&lt;span style=&quot;background-color: initial;&quot;&gt;nginx_zuck_${IMAGE_TAG}&lt;/span&gt;&lt;/li&gt;&lt;li style=&quot;text-align: left;&quot;&gt;&lt;span style=&quot;background-color: initial;&quot;&gt;php_zuck_${IMAGE_TAG}&lt;/span&gt;&lt;/li&gt;&lt;/ul&gt;" style="text;html=1;align=center;verticalAlign=middle;resizable=0;points=[];autosize=1;strokeColor=none;fillColor=none;" vertex="1" parent="VnYKqoV3uC1Lkvoz5hvW-30">
          <mxGeometry x="80" y="28.5" width="210" height="70" as="geometry" />
        </mxCell>
        <mxCell id="VnYKqoV3uC1Lkvoz5hvW-33" value="zuck-web-container" style="text;html=1;align=center;verticalAlign=middle;resizable=0;points=[];autosize=1;strokeColor=none;fillColor=none;" vertex="1" parent="UEzPUAAOIrF-is8g5C7q-175">
          <mxGeometry x="245" y="206" width="130" height="30" as="geometry" />
        </mxCell>
        <mxCell id="VnYKqoV3uC1Lkvoz5hvW-32" value="zuck-app-container" style="text;html=1;align=center;verticalAlign=middle;resizable=0;points=[];autosize=1;strokeColor=none;fillColor=none;" vertex="1" parent="UEzPUAAOIrF-is8g5C7q-175">
          <mxGeometry x="114" y="206" width="130" height="30" as="geometry" />
        </mxCell>
        <mxCell id="VnYKqoV3uC1Lkvoz5hvW-35" value="" style="swimlane;startSize=0;labelBackgroundColor=none;fontSize=13;" vertex="1" parent="UEzPUAAOIrF-is8g5C7q-175">
          <mxGeometry x="120" y="100" width="250" height="130" as="geometry" />
        </mxCell>
        <mxCell id="VnYKqoV3uC1Lkvoz5hvW-34" value="&lt;span style=&quot;color: rgb(22, 25, 31); font-family: &amp;quot;Amazon Ember&amp;quot;, &amp;quot;Helvetica Neue&amp;quot;, Roboto, Arial, sans-serif; font-style: normal; font-variant-ligatures: normal; font-variant-caps: normal; letter-spacing: normal; orphans: 2; text-indent: 0px; text-transform: none; widows: 2; word-spacing: 0px; -webkit-text-stroke-width: 0px; text-decoration-thickness: initial; text-decoration-style: initial; text-decoration-color: initial; float: none; display: inline !important; line-height: 1;&quot;&gt;&lt;font size=&quot;1&quot; style=&quot;&quot;&gt;&lt;b style=&quot;font-size: 13px;&quot;&gt;zuck-app-task-definition&lt;/b&gt;&lt;/font&gt;&lt;/span&gt;" style="text;whiteSpace=wrap;html=1;align=center;" vertex="1" parent="VnYKqoV3uC1Lkvoz5hvW-35">
          <mxGeometry x="-6" width="190" height="30" as="geometry" />
        </mxCell>
        <mxCell id="VnYKqoV3uC1Lkvoz5hvW-5" value="" style="sketch=0;points=[[0,0,0],[0.25,0,0],[0.5,0,0],[0.75,0,0],[1,0,0],[0,1,0],[0.25,1,0],[0.5,1,0],[0.75,1,0],[1,1,0],[0,0.25,0],[0,0.5,0],[0,0.75,0],[1,0.25,0],[1,0.5,0],[1,0.75,0]];outlineConnect=0;fontColor=#232F3E;gradientColor=#F78E04;gradientDirection=north;fillColor=#D05C17;strokeColor=#ffffff;dashed=0;verticalLabelPosition=bottom;verticalAlign=top;align=center;html=1;fontSize=12;fontStyle=0;aspect=fixed;shape=mxgraph.aws4.resourceIcon;resIcon=mxgraph.aws4.containers;" vertex="1" parent="VnYKqoV3uC1Lkvoz5hvW-35">
          <mxGeometry x="151" y="32" width="78" height="78" as="geometry" />
        </mxCell>
        <mxCell id="VnYKqoV3uC1Lkvoz5hvW-45" value="Run" style="text;html=1;align=center;verticalAlign=middle;resizable=0;points=[];autosize=1;strokeColor=none;fillColor=none;fontSize=13;" vertex="1" parent="UEzPUAAOIrF-is8g5C7q-175">
          <mxGeometry x="440" y="80" width="50" height="30" as="geometry" />
        </mxCell>
        <mxCell id="VnYKqoV3uC1Lkvoz5hvW-46" style="edgeStyle=orthogonalEdgeStyle;rounded=0;orthogonalLoop=1;jettySize=auto;html=1;fontSize=13;entryX=1.018;entryY=0.463;entryDx=0;entryDy=0;entryPerimeter=0;" edge="1" parent="UEzPUAAOIrF-is8g5C7q-175" source="VnYKqoV3uC1Lkvoz5hvW-11" target="VnYKqoV3uC1Lkvoz5hvW-8">
          <mxGeometry relative="1" as="geometry">
            <Array as="points">
              <mxPoint x="595" y="170" />
              <mxPoint x="595" y="106" />
            </Array>
          </mxGeometry>
        </mxCell>
        <mxCell id="VnYKqoV3uC1Lkvoz5hvW-48" value="" style="endArrow=classic;html=1;rounded=0;fontSize=13;entryX=0.5;entryY=1;entryDx=0;entryDy=0;exitX=0.486;exitY=0.003;exitDx=0;exitDy=0;exitPerimeter=0;" edge="1" parent="UEzPUAAOIrF-is8g5C7q-175" source="VnYKqoV3uC1Lkvoz5hvW-30" target="VnYKqoV3uC1Lkvoz5hvW-35">
          <mxGeometry width="50" height="50" relative="1" as="geometry">
            <mxPoint x="350" y="450" as="sourcePoint" />
            <mxPoint x="400" y="400" as="targetPoint" />
          </mxGeometry>
        </mxCell>
        <mxCell id="VnYKqoV3uC1Lkvoz5hvW-52" value="zuck-alb" style="text;html=1;align=center;verticalAlign=middle;resizable=0;points=[];autosize=1;strokeColor=none;fillColor=none;fontSize=13;" vertex="1" parent="UEzPUAAOIrF-is8g5C7q-175">
          <mxGeometry x="625" y="260" width="70" height="30" as="geometry" />
        </mxCell>
        <mxCell id="VnYKqoV3uC1Lkvoz5hvW-1" value="users" style="sketch=0;outlineConnect=0;gradientColor=none;fontColor=#545B64;strokeColor=none;fillColor=#879196;dashed=0;verticalLabelPosition=bottom;verticalAlign=top;align=center;html=1;fontSize=12;fontStyle=0;aspect=fixed;shape=mxgraph.aws4.illustration_users;pointerEvents=1" vertex="1" parent="1">
          <mxGeometry x="650" y="-310" width="100" height="100" as="geometry" />
        </mxCell>
        <mxCell id="VnYKqoV3uC1Lkvoz5hvW-14" value="" style="swimlane;startSize=0;" vertex="1" parent="1">
          <mxGeometry x="219" y="-320" width="221" height="120" as="geometry" />
        </mxCell>
        <mxCell id="VnYKqoV3uC1Lkvoz5hvW-12" value="" style="dashed=0;outlineConnect=0;html=1;align=center;labelPosition=center;verticalLabelPosition=bottom;verticalAlign=top;shape=mxgraph.weblogos.github" vertex="1" parent="VnYKqoV3uC1Lkvoz5hvW-14">
          <mxGeometry x="21" y="10" width="49" height="50" as="geometry" />
        </mxCell>
        <mxCell id="VnYKqoV3uC1Lkvoz5hvW-25" value="zuckApp" style="text;html=1;align=center;verticalAlign=middle;resizable=0;points=[];autosize=1;strokeColor=none;fillColor=none;" vertex="1" parent="VnYKqoV3uC1Lkvoz5hvW-14">
          <mxGeometry x="81" y="85" width="70" height="30" as="geometry" />
        </mxCell>
        <mxCell id="VnYKqoV3uC1Lkvoz5hvW-17" value="github-actions&lt;br&gt;" style="text;html=1;align=center;verticalAlign=middle;resizable=0;points=[];autosize=1;strokeColor=none;fillColor=none;" vertex="1" parent="1">
          <mxGeometry x="296" y="-297" width="100" height="30" as="geometry" />
        </mxCell>
        <mxCell id="VnYKqoV3uC1Lkvoz5hvW-20" value="" style="edgeStyle=orthogonalEdgeStyle;html=1;endArrow=none;elbow=vertical;startArrow=block;startFill=1;strokeColor=#545B64;rounded=0;entryX=0.34;entryY=0;entryDx=0;entryDy=0;entryPerimeter=0;" edge="1" parent="1" source="VnYKqoV3uC1Lkvoz5hvW-10" target="VnYKqoV3uC1Lkvoz5hvW-17">
          <mxGeometry width="100" relative="1" as="geometry">
            <mxPoint x="280" y="-350" as="sourcePoint" />
            <mxPoint x="380" y="-350" as="targetPoint" />
            <Array as="points" />
          </mxGeometry>
        </mxCell>
        <mxCell id="VnYKqoV3uC1Lkvoz5hvW-21" value="push images" style="text;html=1;align=center;verticalAlign=middle;resizable=0;points=[];autosize=1;strokeColor=none;fillColor=none;" vertex="1" parent="1">
          <mxGeometry x="325" y="-360" width="90" height="30" as="geometry" />
        </mxCell>
        <mxCell id="VnYKqoV3uC1Lkvoz5hvW-22" style="edgeStyle=orthogonalEdgeStyle;rounded=0;orthogonalLoop=1;jettySize=auto;html=1;exitX=0.5;exitY=1;exitDx=0;exitDy=0;" edge="1" parent="1" source="VnYKqoV3uC1Lkvoz5hvW-14" target="VnYKqoV3uC1Lkvoz5hvW-14">
          <mxGeometry relative="1" as="geometry" />
        </mxCell>
        <mxCell id="VnYKqoV3uC1Lkvoz5hvW-26" value="" style="edgeStyle=orthogonalEdgeStyle;rounded=0;orthogonalLoop=1;jettySize=auto;html=1;entryX=0.488;entryY=1.008;entryDx=0;entryDy=0;entryPerimeter=0;" edge="1" parent="1">
          <mxGeometry relative="1" as="geometry">
            <mxPoint x="331" y="-234" as="sourcePoint" />
            <mxPoint x="330.79999999999995" y="-266.76" as="targetPoint" />
          </mxGeometry>
        </mxCell>
        <mxCell id="VnYKqoV3uC1Lkvoz5hvW-38" value="" style="swimlane;startSize=0;labelBackgroundColor=none;fontSize=13;" vertex="1" parent="1">
          <mxGeometry x="256" y="-700" width="314" height="170" as="geometry" />
        </mxCell>
        <mxCell id="VnYKqoV3uC1Lkvoz5hvW-40" value="&lt;span style=&quot;color: rgb(22, 25, 31); font-family: &amp;quot;Amazon Ember&amp;quot;, &amp;quot;Helvetica Neue&amp;quot;, Roboto, Arial, sans-serif; font-style: normal; font-variant-ligatures: normal; font-variant-caps: normal; letter-spacing: normal; orphans: 2; text-indent: 0px; text-transform: none; widows: 2; word-spacing: 0px; -webkit-text-stroke-width: 0px; text-decoration-thickness: initial; text-decoration-style: initial; text-decoration-color: initial; float: none; display: inline !important; line-height: 1;&quot;&gt;&lt;font size=&quot;1&quot; style=&quot;&quot;&gt;&lt;b style=&quot;font-size: 13px;&quot;&gt;zuck-app-container-service&lt;/b&gt;&lt;/font&gt;&lt;/span&gt;" style="text;whiteSpace=wrap;html=1;align=center;" vertex="1" parent="VnYKqoV3uC1Lkvoz5hvW-38">
          <mxGeometry x="1" y="0.5" width="190" height="30" as="geometry" />
        </mxCell>
        <mxCell id="VnYKqoV3uC1Lkvoz5hvW-43" value="" style="swimlane;startSize=0;labelBackgroundColor=none;fontSize=13;" vertex="1" parent="VnYKqoV3uC1Lkvoz5hvW-38">
          <mxGeometry x="-30.5" y="-30" width="370.5" height="210" as="geometry" />
        </mxCell>
        <mxCell id="VnYKqoV3uC1Lkvoz5hvW-42" value="&lt;span style=&quot;color: rgb(22, 25, 31); font-family: &amp;quot;Amazon Ember&amp;quot;, &amp;quot;Helvetica Neue&amp;quot;, Roboto, Arial, sans-serif; font-style: normal; font-variant-ligatures: normal; font-variant-caps: normal; letter-spacing: normal; orphans: 2; text-indent: 0px; text-transform: none; widows: 2; word-spacing: 0px; -webkit-text-stroke-width: 0px; text-decoration-thickness: initial; text-decoration-style: initial; text-decoration-color: initial; float: none; display: inline !important; line-height: 1;&quot;&gt;&lt;font size=&quot;1&quot; style=&quot;&quot;&gt;&lt;b style=&quot;font-size: 13px;&quot;&gt;zuck-app-cluster&lt;/b&gt;&lt;/font&gt;&lt;/span&gt;" style="text;whiteSpace=wrap;html=1;align=center;" vertex="1" parent="VnYKqoV3uC1Lkvoz5hvW-43">
          <mxGeometry x="-30.5" y="-1.5" width="190" height="30" as="geometry" />
        </mxCell>
        <mxCell id="VnYKqoV3uC1Lkvoz5hvW-39" value="&lt;span style=&quot;color: rgba(0, 0, 0, 0); font-family: monospace; font-size: 0px; text-align: start;&quot;&gt;%3CmxGraphModel%3E%3Croot%3E%3CmxCell%20id%3D%220%22%2F%3E%3CmxCell%20id%3D%221%22%20parent%3D%220%22%2F%3E%3CmxCell%20id%3D%222%22%20value%3D%22%26lt%3Bspan%20style%3D%26quot%3Bcolor%3A%20rgb(22%2C%2025%2C%2031)%3B%20font-family%3A%20%26amp%3Bquot%3BAmazon%20Ember%26amp%3Bquot%3B%2C%20%26amp%3Bquot%3BHelvetica%20Neue%26amp%3Bquot%3B%2C%20Roboto%2C%20Arial%2C%20sans-serif%3B%20font-style%3A%20normal%3B%20font-variant-ligatures%3A%20normal%3B%20font-variant-caps%3A%20normal%3B%20letter-spacing%3A%20normal%3B%20orphans%3A%202%3B%20text-indent%3A%200px%3B%20text-transform%3A%20none%3B%20widows%3A%202%3B%20word-spacing%3A%200px%3B%20-webkit-text-stroke-width%3A%200px%3B%20text-decoration-thickness%3A%20initial%3B%20text-decoration-style%3A%20initial%3B%20text-decoration-color%3A%20initial%3B%20float%3A%20none%3B%20display%3A%20inline%20!important%3B%20line-height%3A%201%3B%26quot%3B%26gt%3B%26lt%3Bfont%20size%3D%26quot%3B1%26quot%3B%20style%3D%26quot%3B%26quot%3B%26gt%3B%26lt%3Bb%20style%3D%26quot%3Bfont-size%3A%2013px%3B%26quot%3B%26gt%3Bzuck-app-task-definition%26lt%3B%2Fb%26gt%3B%26lt%3B%2Ffont%26gt%3B%26lt%3B%2Fspan%26gt%3B%22%20style%3D%22text%3BwhiteSpace%3Dwrap%3Bhtml%3D1%3Balign%3Dcenter%3B%22%20vertex%3D%221%22%20parent%3D%221%22%3E%3CmxGeometry%20x%3D%22274%22%20y%3D%22-670%22%20width%3D%22190%22%20height%3D%2230%22%20as%3D%22geometry%22%2F%3E%3C%2FmxCell%3E%3C%2Froot%3E%3C%2FmxGraphModel%3E&lt;/span&gt;" style="text;html=1;align=center;verticalAlign=middle;resizable=0;points=[];autosize=1;strokeColor=none;fillColor=none;fontSize=13;" vertex="1" parent="1">
          <mxGeometry x="260" y="-705" width="20" height="30" as="geometry" />
        </mxCell>
        <mxCell id="VnYKqoV3uC1Lkvoz5hvW-44" style="edgeStyle=orthogonalEdgeStyle;rounded=0;orthogonalLoop=1;jettySize=auto;html=1;fontSize=13;" edge="1" parent="1" source="VnYKqoV3uC1Lkvoz5hvW-8" target="VnYKqoV3uC1Lkvoz5hvW-43">
          <mxGeometry relative="1" as="geometry" />
        </mxCell>
        <mxCell id="VnYKqoV3uC1Lkvoz5hvW-51" value="" style="edgeStyle=orthogonalEdgeStyle;rounded=0;orthogonalLoop=1;jettySize=auto;html=1;fontSize=13;" edge="1" parent="1" source="VnYKqoV3uC1Lkvoz5hvW-50" target="VnYKqoV3uC1Lkvoz5hvW-7">
          <mxGeometry relative="1" as="geometry" />
        </mxCell>
        <mxCell id="VnYKqoV3uC1Lkvoz5hvW-50" value="https://zuck.progrit.work/" style="text;html=1;align=center;verticalAlign=middle;resizable=0;points=[];autosize=1;strokeColor=none;fillColor=none;fontSize=13;" vertex="1" parent="1">
          <mxGeometry x="620" y="-350" width="160" height="30" as="geometry" />
        </mxCell>
      </root>
    </mxGraphModel>
  </diagram>
</mxfile>
